{"title":"My Love My Bride 2014 2014 720p HDRip X264-KTH [MovietaM]","uid":11430093,"size":3418108188,"categoryP":"video","categoryS":"hd___movies","magnet":"?xt=urn:btih:54085d49a52b7f39499ac82e7ffc488a49383f75&amp;dn=My+Love+My+Bride+2014+2014+720p+HDRip+X264-KTH+%5BMovietaM%5D&amp;tr=udp%3A%2F%2Ftracker.openbittorrent.com%3A80&amp;tr=udp%3A%2F%2Fopen.demonii.com%3A1337&amp;tr=udp%3A%2F%2Ftracker.coppersurfer.tk%3A6969&amp;tr=udp%3A%2F%2Fexodus.desync.com%3A6969","seeders":77,"leechers":4,"uploader":"divachen","files":1,"time":1415714886,"description":"[img]http://ww4.sinaimg.cn/large/a83bb572jw1em7ch4l6npj20iu0qun37.jpg[/img]\n\n[code]Video\nID : 0\nFormat : AVC\nFormat/Info : Advanced Video Codec\nFormat profile : &lt;a class=&quot;__cf_email__&quot; href=&quot;/cdn-cgi/l/email-protection&quot; data-cfemail=&quot;0c4e6d7f69606562694c403f223d&quot;&gt;[email&amp;#160;protected]&lt;/a&gt;&lt;script cf-hash='f9e31' type=&quot;text/javascript&quot;&gt;\n/* &lt;![CDATA[ */!function(){try{var t=&quot;currentScript&quot;in document?document.currentScript:function(){for(var t=document.getElementsByTagName(&quot;script&quot;),e=t.length;e--;)if(t[e].getAttribute(&quot;cf-hash&quot;))return t[e]}();if(t&amp;&amp;t.previousSibling){var e,r,n,i,c=t.previousSibling,a=c.getAttribute(&quot;data-cfemail&quot;);if(a){for(e=&quot;&quot;,r=parseInt(a.substr(0,2),16),n=2;a.length-n;n+=2)i=parseInt(a.substr(n,2),16)^r,e+=String.fromCharCode(i);e=document.createTextNode(e),c.parentNode.replaceChild(e,c)}}}catch(u){}}();/* ]]&gt; */&lt;/script&gt;\nFormat settings, CABAC : No\nFormat settings, ReFrames : 1 frame\nCodec ID : H264\nDuration : 1h 50mn\nBit rate : 3 970 Kbps\nWidth : 1 280 pixels\nHeight : 720 pixels\nDisplay aspect ratio : 16:9\nFrame rate mode : Variable\nFrame rate : 24.000 fps\nColor space : YUV\nChroma subsampling : 4:2:0\nBit depth : 8 bits\nScan type : Progressive\nBits/(Pixel*Frame) : 0.179\nStream size : 3.08 GiB (97%)\n\nAudio\nID : 1\nFormat : MPEG Audio\nFormat version : Version 1\nFormat profile : Layer 3\nMode : Joint stereo\nMode extension : MS Stereo\nCodec ID : 55\nCodec ID/Hint : MP3\nDuration : 1h 50mn\nBit rate mode : Constant\nBit rate : 128 Kbps\nChannel(s) : 2 channels\nSampling rate : 44.1 KHz\nCompression mode : Lossy\nStream size : 102 MiB (3%)\nAlignment : Aligned on interleaves\nInterleave, duration : 26 ms (0.63 video frame)\nWriting library : LAME3.98.2[/code]\n\n[img]http://ww3.sinaimg.cn/large/a83bb572jw1em7clq3vhqj20sa1jvgzy.jpg[/img]","torrent":{"xt":"urn:btih:54085d49a52b7f39499ac82e7ffc488a49383f75","amp;dn":"My+Love+My+Bride+2014+2014+720p+HDRip+X264-KTH+%5BMovietaM%5D","amp;tr":["udp%3A%2F%2Ftracker.openbittorrent.com%3A80","udp%3A%2F%2Fopen.demonii.com%3A1337","udp%3A%2F%2Ftracker.coppersurfer.tk%3A6969","udp%3A%2F%2Fexodus.desync.com%3A6969"],"infoHash":"54085d49a52b7f39499ac82e7ffc488a49383f75","infoHashBuffer":{"type":"Buffer","data":[84,8,93,73,165,43,127,57,73,154,200,46,127,252,72,138,73,56,63,117]},"announce":[],"urlList":[]}}